<?xml version="1.0" encoding="UTF-8" standalone="no"?>
<svg
   width="342.01691"
   height="388.46622"
   viewBox="0 0 342.01691 388.46622"
   fill="none"
   version="1.1"
   id="svg188"
   sodipodi:docname="796ac6ed75c0bb4b061f5e38d8ad6071.svg"
   xmlns:inkscape="http://www.inkscape.org/namespaces/inkscape"
   xmlns:sodipodi="http://sodipodi.sourceforge.net/DTD/sodipodi-0.dtd"
   xmlns="http://www.w3.org/2000/svg"
   xmlns:svg="http://www.w3.org/2000/svg">
  <defs
     id="defs192" />
  <sodipodi:namedview
     id="namedview190"
     pagecolor="#ffffff"
     bordercolor="#666666"
     borderopacity="1.0"
     inkscape:pageshadow="2"
     inkscape:pageopacity="0.0"
     inkscape:pagecheckerboard="0" />
  <path
     d="m 264.13803,99.815227 c 9.039,-10.345 22.174,-17.0537 42.088,-14.7587 9.746,1.3536 19.008,5.0727 26.988,10.8397 0.553,0.412 0.977,0.989 1.212,1.648 0.236,0.659 0.271,1.365 0.095,2.048 -0.177,0.671003 -0.542,1.283003 -1.06,1.754003 -0.518,0.47 -1.165,0.776 -1.847,0.87 -17.714,2.201 -28.389,5.426 -38.475,21.186 l -29.001,-23.575003 z"
     fill="#e3cdf7"
     id="path2" />
  <g
     style="mix-blend-mode:multiply"
     opacity="0.1"
     id="g6"
     transform="translate(72.000035,-11.074773)">
    <path
       d="m 252.493,107.371 c 1.73,0.824 1.366,3.378 -0.529,3.684 -10.487,1.671 -18.337,4.343 -25.282,11.099 -1.306,1.271 -3.448,0.941 -4.319,-0.647 -1.518,-2.778 -3.907,-6.744 -6.673,-9.875 -2.472,-2.801 -0.977,-7.215 2.66,-8.027 7.921,-1.777 20.585,-2.719 34.143,3.778 z"
       fill="#3f4aaf"
       id="path4" />
  </g>
  <path
     d="m 128.56543,302.35923 c -16.807,-6.779 -28.5413,-19.267 -34.908695,-35.862 -3.0718,-7.533 -5.3552,-16.019 -7.2383,-24.21 -1.6831,-7.839 -4.43715,-15.536 -9.16853,-22.362 -9.98065,-14.983 -28.54137,-20.833 -44.75987,-12.7 -3.3191,1.648 -6.3792,3.66 -8.8979,6.273 11.8991,0.812 23.2804,2.625 29.6242,12.464 3.4956,5.591 5.0609,13.724 5.7906,20.833 1.33,11.216 4.36657,21.95 10.14546,32.048 7.54433,13.582 21.76204,25.258 37.486235,27.153 7.4267,0.906 15.3947,0.176 21.9151,-3.649 z"
     fill="#fc8955"
     id="path8" />
  <path
     d="m 128.56543,302.35923 c -18.1487,-6.921 -33.955295,-16.913 -42.888495,-33.779 -3.3073,-6.014 -5.95541,-13.1 -7.93271,-20.044 -1.54182,-5.826 -3.23664,-11.44 -5.955425,-16.983 -9.862965,-21.197 -31.942765,-33.614 -54.363865,-23.257 -3.5545,1.671 -6.85,3.731 -9.5923001,6.415 20.5262001,0.011 34.4144001,5.99 39.8520001,26.552 1.2475,4.272 2.0361,9.039 2.8129,13.523 1.942,10.228 5.6259,19.95 11.88734,28.8 9.592249,13.971 26.49346,23.704 43.276855,23.94 7.9681,0.129 15.9832,-1.177 22.9037,-5.167 z"
     fill="#fdd466"
     id="path10" />
  <path
     d="m 128.56533,302.35923 c -23.5039,-9.122 -49.032245,-19.243 -62.496695,-41.417 -3.43673,-5.379 -5.6023,-11.641 -8.4271,-17.384 -3.4602,-7.038 -7.7208,-13.935 -13.3467,-20.197 -8.4153,-9.616 -22.48,-18.172 -35.6149001,-13.664 -3.3543,1.153 -6.3085,3.036 -8.45059996,5.461 -0.5414,0.624 -0.0588,1.577 0.7651,1.506 3.01299996,-0.259 5.81409996,0.059 8.25049996,0.777 8.8389001,2.848 12.9348001,10.346 16.9129001,18.561 2.554,5.531 4.6843,11.569 6.6852,17.784 2.2597,7.532 4.649,15.182 8.8625,21.938 8.6978,14.853 24.11596,25.929 40.4757,30.06 15.5359,3.896 31.942795,3.389 46.407695,-3.413 z"
     fill="#95dcbc"
     id="path12" />
  <g
     style="mix-blend-mode:multiply"
     opacity="0.1"
     id="g16"
     transform="translate(72.000035,-11.074773)">
    <path
       d="m 11.1464,317.059 c 3.2132,-11.499 7.1795,-23.551 12.0757,-35.791 6.6263,14.747 17.8192,25.893 33.3433,32.154 -0.7297,0.424 -1.4712,0.812 -2.2244,1.154 -4.0252,1.942 -8.3565,3.06 -12.7936,3.601 -9.9689,1.813 -20.3615,1.26 -30.401,-1.13 z"
       fill="#3f4aaf"
       id="path14" />
  </g>
  <path
     d="m 273.84903,310.15023 c 16.36,22.645 21.268,54.141 22.727,71.972 0.059,0.812 -0.047,1.624 -0.306,2.389 -0.271,0.765 -0.694,1.471 -1.248,2.071 -0.553,0.601 -1.224,1.071 -1.965,1.389 -0.742,0.33 -1.554,0.495 -2.366,0.495 h -35.968 c -1.353,0 -2.672,-0.471 -3.719,-1.33 -1.048,-0.86 -1.765,-2.048 -2.036,-3.378 -2.731,-13.924 -10.204,-26.47 -21.162,-35.486 -10.957,-9.015 -24.704,-13.947 -38.899,-13.947 -14.194,0 -27.9407,4.932 -38.8982,13.947 -10.9575,9.016 -18.443,21.562 -21.1618,35.486 -0.2707,1.33 -0.9886,2.518 -2.0479,3.378 -1.0475,0.859 -2.3657,1.33 -3.7192,1.33 H 87.053135 c -0.8004,0 -1.6007,-0.165 -2.3422,-0.483 -0.7415,-0.318 -1.4006,-0.789 -1.9537,-1.377 -0.5532,-0.589 -0.97691,-1.283 -1.24762,-2.036 -0.2707,-0.753 -0.38838,-1.566 -0.34131,-2.366 2.13033,-32.002 12.71123,-115.401 65.239025,-182.429 l 3.9193,-46.655 75.7724,-79.162403 25.776,119.285403 c -32.567,38.251 -7.533,76.055 21.974,116.907 z"
     fill="#e3cdf7"
     id="path18" />
  <g
     style="mix-blend-mode:multiply"
     opacity="0.1"
     id="g22"
     transform="translate(72.000035,-11.074773)">
    <path
       d="m 40.8052,266.438 -0.0236,-0.035 c 0.4944,-1.083 1.0358,-2.131 1.5419,-3.202 0.0941,-0.2 0.1883,-0.4 0.2824,-0.6 0.9651,-2.024 1.942,-4.037 2.9542,-6.026 1.0475,-2.071 2.1303,-4.155 3.2249,-6.226 0.153,-0.294 0.3178,-0.589 0.4708,-0.883 7.0735,-13.147 15.3829,-26.164 25.1399,-38.616 l 3.9193,-46.655 54.646,-76.2552 8.486,23.3512 -43.312,52.904 -3.9193,46.655 c -8.5682,10.922 -16.0067,22.292 -22.48,33.791 4.037,3.001 8.0976,5.837 12.0051,8.58 3.0719,2.13 6.0496,4.201 8.9096,6.285 l 18.2546,39.404 0.553,9.581 C 99.1943,303.642 85.9652,299.358 72.7597,292.696 l -0.1883,-0.094 c -10.2396,-5.285 -22.7389,-0.188 -26.2698,10.781 -12.2993,38.122 -16.1244,72.018 -17.3131,89.896 -0.0471,0.801 0.0588,1.613 0.3413,2.366 0.2707,0.753 0.6944,1.448 1.2476,2.036 0.5531,0.589 1.2122,1.059 1.9537,1.377 0.7415,0.318 1.5419,0.483 2.3422,0.483 H 15.0532 c -0.8003,0 -1.6006,-0.165 -2.3421,-0.483 -0.7415,-0.318 -1.4006,-0.788 -1.9538,-1.377 -0.5532,-0.588 -0.97686,-1.283 -1.24756,-2.036 C 9.23903,394.892 9.12135,394.08 9.16843,393.279 10.7338,369.775 16.854,318.542 40.817,266.438 Z"
       fill="#3f4aaf"
       id="path20" />
  </g>
  <g
     style="mix-blend-mode:multiply"
     opacity="0.1"
     id="g26"
     transform="translate(72.000035,-11.074773)">
    <path
       d="m 105.208,151.39 c -1.2,-3.955 -2.236,-7.957 -3.154,-11.982 l 36.945,-38.604 c 0.035,0.918 0.259,1.812 0.659,2.648 3.025,6.108 6.462,12.005 10.287,17.654 5.508,8.227 10.957,14.924 16.383,20.538 l 13.547,62.674 c -8.074,9.486 -12.605,18.949 -14.406,28.435 -12.335,-3.578 -23.798,-9.957 -33.402,-18.843 -16.231,-15.006 -25.823,-35.85 -26.682,-57.93 l -0.177,-4.579 z"
       fill="#3f4aaf"
       id="path24" />
  </g>
  <path
     d="m 303.42603,182.43823 -2.46,-63.038 c -0.247,-6.391 -1.742,-12.687 -4.425,-18.502 -2.672,-5.814003 -6.473,-11.040003 -11.169,-15.394303 -4.696,-4.343 -10.216,-7.7209 -16.219,-9.9336 -6.002,-2.2127 -12.393,-3.2249 -18.784,-2.9659 l -63.697,2.4951 2.248,57.494703 c 0.859,22.08 10.463,42.924 26.693,57.918 16.23,15.007 37.745,22.951 59.837,22.08 3.813,-0.141 7.568,-1.036 11.051,-2.636 3.473,-1.589 6.603,-3.861 9.193,-6.662 2.601,-2.801 4.625,-6.085 5.943,-9.675 1.33,-3.577 1.942,-7.391 1.789,-11.216 z"
     fill="#e3cdf7"
     id="path28" />
  <path
     d="m 186.67203,75.111227 c 3.99,-9.3686 36.922,-1.4477 36.922,-1.4477 l 26.764,-1.0475 c 6.391,-0.2589 12.782,0.7533 18.784,2.966 6.003,2.2127 11.523,5.5905 16.219,9.9335 4.696,4.3427 8.497,9.5807 11.169,15.394703 2.672,5.814 4.178,12.099 4.425,18.502 l 1.213,30.978 c 3.06,2.271 5.673,5.096 7.65,8.521 10.604,18.372 -4.967,48.926 -22.256,58.907 -14.489,8.356 -29.978,3.589 -40.864,-8.992 -11.452,-3.684 -22.092,-9.828 -31.084,-18.149 -15.23,-14.088 -24.622,-33.308 -26.423,-53.881 -0.129,-1.389 -0.212,-2.778 -0.271,-4.167 l -0.176,-4.496 c -1.919,-6.308 -3.472,-12.735 -4.626,-19.231 -1.847,-11.287003 -1.977,-23.139503 2.554,-33.767503 z"
     fill="#e3cdf7"
     id="path30" />
  <path
     d="m 282.25303,12.896927 c -4.308,9.3215 -9.122,15.5594 -18.279,17.3484 -10.357,1.789 -22.256,1.1299 -33.072,1.0828 -12.547,-0.1177 -27.306,5.0139 -33.52,17.2778 -7.839,15.1122 2.919,31.7192 18.49,34.591 0.977,-3.5662 3.684,-20.7852 8.121,-18.3607 1.048,1.0711 0.377,3.2367 -0.012,4.3313 -0.459,1.1181 -0.164,1.3888 0.777,1.6242 1.601,0.2942 3.637,0.3884 5.379,0.4943 5.226,0.2119 10.322,0.0589 15.571,-0.6709 13.264,-1.7536 27.859,-7.5443 36.662,-18.6195 9.275,-10.8869 10.746,-28.9886 -0.129,-39.0987 z"
     fill="#fdd466"
     id="path32" />
  <g
     style="mix-blend-mode:multiply"
     opacity="0.1"
     id="g36"
     transform="translate(72.000035,-11.074773)">
    <path
       d="m 197.152,86.6451 c 6.003,2.2126 11.523,5.5905 16.219,9.9335 4.696,4.3434 8.497,9.5804 11.169,15.3944 1.507,3.284 2.625,6.709 3.378,10.228 -8.651,2.472 -18.361,1.848 -26.599,-0.659 -11.099,-3.331 -19.726,-8.557 -28.283,-15.289 -4.449,-3.625 -9.121,-7.7795 -13.735,-10.8513 -7.827,-5.6024 -19.879,-6.8382 -30.224,-6.4969 0.153,-1.1299 0.4,-2.2362 0.694,-3.319 l 48.597,-1.8949 c 6.391,-0.259 12.782,0.7532 18.784,2.9659 z"
       fill="#3f4aaf"
       id="path34" />
  </g>
  <path
     d="m 298.76603,128.11023 c -2.154,8.356 -8.003,14.076 -13.064,12.77 -3.155,-0.812 -5.261,-4.167 -5.885,-8.616 2.766,-6.579 9.263,-19.467 15.053,-11.557 1.601,2.177 2.99,3.613 4.508,4.131 -0.13,1.071 -0.33,2.165 -0.612,3.26 z"
     fill="#c591e7"
     id="path38" />
  <path
     d="m 297.50603,127.12123 c -1.977,7.65 -7.332,12.888 -11.958,11.699 -2.895,-0.742 -4.825,-3.825 -5.39,-7.886 2.53,-6.026 8.486,-17.819 13.782,-10.581 1.46,1.989 2.742,3.308 4.131,3.778 -0.117,0.977 -0.306,1.978 -0.565,2.99 z"
     fill="#ffffff"
     id="path40" />
  <path
     d="m 286.10803,134.86423 c -2.99,-0.771 -4.304,-5.702 -2.935,-11.015 1.369,-5.312 4.903,-8.994 7.893,-8.224 2.99,0.771 4.304,5.702 2.935,11.015 -1.369,5.312 -4.903,8.994 -7.893,8.224 z"
     fill="#909af2"
     id="path42" />
  <path
     d="m 286.80103,132.17423 c -2.159,-0.556 -3.11,-4.11 -2.124,-7.937 0.986,-3.827 3.536,-6.478 5.695,-5.922 2.159,0.556 3.11,4.11 2.124,7.937 -0.987,3.827 -3.536,6.478 -5.695,5.922 z"
     fill="#10132c"
     id="path44" />
  <path
     d="m 285.66603,125.96723 c -0.819,0 -1.483,-0.663 -1.483,-1.482 0,-0.82 0.664,-1.483 1.483,-1.483 0.819,0 1.483,0.663 1.483,1.483 0,0.819 -0.664,1.482 -1.483,1.482 z"
     fill="#ffffff"
     id="path46" />
  <g
     style="mix-blend-mode:multiply"
     opacity="0.1"
     id="g50"
     transform="translate(72.000035,-11.074773)">
    <path
       d="m 123.193,71.2504 c 9.769,-11.7343 25.835,-18.702 41.512,-20.9382 10.745,-1.4241 22.88,-1.0357 33.284,-2.1891 6.556,-0.7651 11.17,-0.9416 16.713,-3.2485 1.142,-0.5531 2.189,-1.1887 3.178,-1.8949 -0.118,7.2266 -2.801,14.5826 -7.497,20.0908 -8.804,11.0634 -23.398,16.8659 -36.663,18.6195 -5.249,0.7298 -10.357,0.8945 -15.571,0.6709 -1.742,-0.1059 -3.79,-0.2001 -5.379,-0.4943 -0.929,-0.2354 -1.224,-0.5061 -0.776,-1.6242 0.388,-1.0946 1.071,-3.2602 0.011,-4.3313 -3.272,-1.7889 -5.602,7.1089 -6.991,13.3233 -4.002,-0.0236 -8.003,0.047 -12.017,0.2942 -5.79,-4.2724 -9.663,-10.7574 -10.157,-17.8192 0.118,-0.153 0.236,-0.306 0.353,-0.4473 z"
       fill="#3f4aaf"
       id="path48" />
  </g>
  <path
     d="m 334.28603,24.925627 c -3.214,6.8852 -7.298,13.8999 -14.348,16.5716 -5.013,1.5771 -9.003,1.1652 -14.723,1.0828 -9.063,-0.1883 -19.456,-2.1303 -28.836,-2.095 -13.712,0.2001 -28.282,5.0492 -37.981,15.43 -4.837,5.3081 -8.862,12.1462 -8.65,19.5611 17.901,-2.1185 34.438,3.5191 51.81,5.2846 13.641,1.4476 28.188,0.0824 40.828,-6.8382 7.156,-3.9075 13.9,-10.3102 17.149,-18.031 4.555,-10.3691 2.86,-23.0803 -5.249,-30.9659 z"
     fill="#95dcbc"
     id="path52" />
  <g
     style="mix-blend-mode:multiply"
     opacity="0.1"
     id="g56"
     transform="translate(72.000035,-11.074773)">
    <path
       d="m 166.399,66.9898 c 4.814,-5.1433 10.828,-8.9332 17.337,-11.4754 3.378,0.6944 6.649,1.6713 9.757,2.9306 4.837,1.8243 9.286,4.3313 13.511,7.0265 10.028,6.1555 19.879,12.5817 30.684,16.6187 10.533,3.9075 20.267,-4.5313 27.435,-10.9575 0.035,0.0824 0.058,0.1648 0.106,0.2472 -3.614,5.7318 -9.087,10.4749 -14.83,13.6056 -12.641,6.9206 -27.188,8.2859 -40.829,6.8382 -16.548,-1.6713 -32.355,-6.8617 -49.291,-5.52 -0.812,-0.2942 -1.66,-0.5649 -2.507,-0.8121 0.165,-7.0029 4.037,-13.4526 8.639,-18.5136 z"
       fill="#3f4aaf"
       id="path54" />
  </g>
  <path
     d="m 244.49003,80.851027 c 0.669,1.0547 3.009,2.9487 7.713,6.7353 2.541,2.0479 1.794,1.2888 5.23,4.0009 4.714,3.71 5.995,4.961 8.284,5.314 1.324,0.198 2.273,-0.078 3.442,-0.416 2.102,-0.625 3.547,-1.774 5.259,-3.595 2.471,-2.619 6.214,-6.7081 7.865,-13.6906 0.287,-1.1791 0.433,-2.1739 0.517,-2.7984 1.174,-1.1482 2.518,-2.5834 3.852,-4.36 0,0 1.571,-2.1176 2.898,-4.4635 2.949,-5.2382 4.168,-10.4013 4.744,-14.1774 1.144,-1.1086 2.325,-2.3964 3.484,-3.9109 2.961,-3.935 4.564,-7.9277 5.46,-11.1251 0.327,-1.6495 0.624,-3.2595 0.91,-4.8563 0.809,-0.8638 1.621,-1.8291 2.385,-2.9565 2.781,-3.9891 3.993,-8.1139 4.551,-11.3195 3.257,-5.545 5.549,-10.1802003 7.053,-13.4338003 1.35,-2.9545 2.274,-5.19129996 1.591,-5.71359996 -0.248,-0.1899 -0.983,-0.3552 -5.493,3.00019996 -3.054,2.2562 -5.343,4.2837 -6.795,5.6359 -0.49,0.1894 -0.983,0.4169 -1.472,0.6696 -4.284,2.1920003 -6.9,5.5146003 -8.511,8.4571003 -2.322,0.6241 -7.069,2.2953 -10.417,6.8322 -1.389,1.8807 -2.169,3.7683 -2.646,5.3242 -2.738,0.911 -7.49,2.9749 -11.02,7.6856 -1.335,1.7766 -2.203,3.5548 -2.797,5.104 -5.075,2.4853 -10.515,6.3815 -14.277,12.585 -0.371,0.6138 -0.726,1.2394 -1.031,1.8624 -0.264,0.1527 -0.62,0.3606 -1.006,0.608 -8.072,5.1817 -13.888,16.4515 -9.758,23.0141 z"
     fill="#fc6dff"
     id="path58" />
  <path
     d="m 284.39003,29.980227 c -0.696,1.9721 -0.629,3.589 -0.462,4.6564 0.727,4.71 4.658,6.9662 8.123,13.4993 1.16,2.1817 1.84,4.0586 2.214,5.2422 0.378,-3.2597 -0.278,-5.6821 -0.913,-7.2322 -1.783,-4.3906 -4.984,-6.0256 -7.404,-11.3839 -0.918,-2.0168 -1.345,-3.7419 -1.563,-4.8068 z"
     fill="#cf42d2"
     id="path60" />
  <path
     d="m 269.61003,48.463427 c -0.225,5.9861 3.109,11.1461 4.458,13.2423 2.253,3.5186 3.377,3.7527 5.62,7.6389 1.639,2.8409 2.573,5.3505 3.097,7.0455 0.011,-1.5575 -0.102,-3.9189 -0.87,-6.7407 -1.903,-6.9035 -5.852,-9.7158 -8.564,-16.2365 -1.051,-2.5163 -2.18,-6.2186 -2.196,-11.0532 -0.649,1.2988 -1.452,3.3775 -1.545,6.1037 z"
     fill="#cf42d2"
     id="path62" />
  <path
     d="m 297.44203,17.835827 c -0.459,1.3397 -0.429,2.4269 -0.312,3.1425 0.496,3.1773 3.143,4.7012 5.474,9.1146 0.772,1.4672 1.239,2.722 1.506,3.5313 0.258,-2.203 -0.188,-3.8386 -0.606,-4.868 -1.201,-2.9644 -3.356,-4.0703 -5.006,-7.6702 -0.622,-1.3735 -0.898,-2.524 -1.066,-3.237 z"
     fill="#cf42d2"
     id="path64" />
  <path
     d="m 253.51203,64.331927 c -0.254,6.9242 3.593,12.8937 5.156,15.3207 2.618,4.0697 3.907,4.3461 6.5,8.8348 1.892,3.2838 2.974,6.1788 3.583,8.1478 0.023,-1.799 -0.12,-4.539 -1.012,-7.8098 -2.203,-7.9896 -6.768,-11.2517 -9.902,-18.7636 -1.215,-2.913 -2.52,-7.1886 -2.536,-12.7954 -0.749,1.4937 -1.676,3.8952 -1.789,7.0655 z"
     fill="#cf42d2"
     id="path66" />
  <path
     d="m 306.91803,10.659727 c -0.063,1.8513 0.972,3.457 1.385,4.107 0.69,1.0915 1.055,1.1616 1.731,2.3678 0.513,0.8728 0.8,1.6557 0.965,2.1789 -10e-4,-0.4809 -0.031,-1.2136 -0.272,-2.0874 -0.581,-2.1351 -1.806,-3.0097 -2.647,-5.0303 -0.322,-0.7685 -0.665,-1.9283 -0.679,-3.4213003 -0.21,0.4031 -0.458,1.0486 -0.483,1.8853003 z"
     fill="#cf42d2"
     id="path68" />
  <path
     d="m 320.50303,65.189427 c -6.344,6.4262 -14.971,14.8651 -24.281,10.9575 -9.556,-4.0369 -18.29,-10.4632 -27.164,-16.6187 -3.743,-2.6952 -7.674,-5.2021 -11.958,-7.0264 -14.441,-6.6263 -33.355,-5.6377 -45.383,5.2727 -5.826,5.2611 -10.063,12.1816 -10.64,20.0437 10.298,-1.0122 22.409,-0.5531 30.577,4.5196 4.802,2.7658 9.746,6.6024 14.418,9.9334 8.969,6.156 17.913,10.805003 29.212,13.417003 12.582,2.955 28.177,1.507 38.028,-8.003003 8.874,-8.403 11.652,-21.4441 7.191,-32.5076 z"
     fill="#fc8955"
     id="path70" />
  <path
     d="m 182.16303,232.96523 c -0.683,7.756 -3.095,15.254 -7.062,21.951 -10.7219,-15.113 -28.2469,-27.671 -42.7471,-45.09 -14.1236,-17.125 -25.0928,-39.122 -13.4998,-66.251 5.3905,-11.935 13.594,-19.597 22.7625,-24.022 -1.9067,22.61 11.2282,43.195 22.2564,61.014 11.287,18.101 20.585,33.461 18.29,52.398 z"
     fill="#95dcbc"
     id="path72" />
  <path
     d="m 186.09503,277.80723 c 1.554,5.367 2.484,10.899 2.766,16.478 0.024,0.659 -0.141,1.295 -0.471,1.871 -0.329,0.565 -0.8,1.036 -1.377,1.342 -0.576,0.318 -1.224,0.459 -1.883,0.424 -0.659,-0.036 -1.283,-0.247 -1.824,-0.624 -14.1237,-9.886 -31.0602,-17.231 -47.2788,-28.871 -17.8898,-13.017 -34.8263,-31.566 -33.2845,-61.331 0.9533,-13.171 5.7789,-22.963 12.4523,-29.86 5.0256,22.762 22.7507,39.369 37.7687,53.881 15.4535,14.795 28.1883,27.353 33.1193,46.69 z"
     fill="#fdd466"
     id="path74" />
  <g
     style="mix-blend-mode:multiply"
     opacity="0.1"
     id="g78"
     transform="translate(72.000035,-11.074773)">
    <path
       d="m 43.4412,259.929 c -1.4712,-5.849 -2.142,-12.252 -1.7772,-19.278 0.9181,-12.7 5.4376,-22.257 11.7579,-29.107 -4.6608,-7.014 -8.3329,-14.688 -10.2161,-23.233 -6.6733,6.897 -11.4989,16.689 -12.4522,29.86 -0.8945,17.36 4.4842,30.907 12.6876,41.758 z"
       fill="#3f4aaf"
       id="path76" />
  </g>
  <path
     d="m 194.13303,190.80723 c -3.472,7.155 -8.639,13.37 -15.053,18.078 -6.026,-16.996 -20.3499,-33.732 -29.8833,-54.141 -9.2509,-20.008 -13.7116,-43.677 6.7558,-65.368003 8.2858,-8.5448 19.2905,-13.9589 31.1185,-15.3006 -8.945,20.2086 -1.624,43.147603 4.414,62.908603 6.261,20.103 11.24,37.039 2.648,53.823 z"
     fill="#fc8955"
     id="path80" />
  <g
     style="mix-blend-mode:multiply"
     opacity="0.1"
     id="g84"
     transform="translate(72.000035,-11.074773)">
    <path
       d="m 52.5988,210.32 c -0.7415,-8.415 0.5179,-17.489 4.6726,-27.211 4.4606,-9.875 10.8398,-16.819 18.1016,-21.421 -4.1193,-9.828 -6.6733,-20.208 -5.7553,-31.06 -9.1685,4.425 -17.372,12.087 -22.7625,24.022 -9.3333,21.833 -4.0487,40.346 5.7436,55.67 z"
       fill="#3f4aaf"
       id="path82" />
  </g>
  <g
     style="mix-blend-mode:multiply"
     opacity="0.1"
     id="g88"
     transform="translate(72.000035,-11.074773)">
    <path
       d="m 75.2311,161.312 c -0.8827,-12.712 2.6364,-25.835 14.406,-38.299 5.9555,-6.143 13.2999,-10.651 21.3499,-13.217 -0.423,-8.392 0.577,-16.7247 4.084,-24.6456 -11.828,1.3417 -22.821,6.744 -31.1186,15.3006 -18.9491,20.079 -16.5363,41.864 -8.7213,60.861 z"
       fill="#3f4aaf"
       id="path86" />
  </g>
  <path
     d="m 240.95303,200.68123 c 10.605,18.373 29.33,27.094 46.62,17.113 17.278,-9.98 32.861,-40.534 22.256,-58.907 -10.604,-18.372 -39.499,-19.514 -56.788,-9.533 -17.278,9.981 -22.692,32.955 -12.088,51.327 z"
     fill="#c591e7"
     id="path90" />
  <g
     style="mix-blend-mode:multiply"
     opacity="0.5"
     id="g96"
     transform="translate(72.000035,-11.074773)">
    <g
       style="mix-blend-mode:multiply"
       opacity="0.5"
       id="g94">
      <path
         d="m 226.307,201.599 c 0,-1.659 0.223,-3.496 1.129,-5.143 0.824,-1.495 2.637,-1.601 4.32,-0.801 1.671,0.813 1.624,2.084 0.459,2.519 -2.06,0.871 -3.531,2.248 -4.367,3.719 -0.365,0.671 -1.494,0.471 -1.553,-0.294 z"
         fill="#10132c"
         id="path92" />
    </g>
  </g>
  <g
     style="mix-blend-mode:multiply"
     opacity="0.5"
     id="g102"
     transform="translate(72.000035,-11.074773)">
    <g
       style="mix-blend-mode:multiply"
       opacity="0.5"
       id="g100">
      <path
         d="m 215.643,206.13 c -2.048,-1.553 -4.508,-2.813 -7.262,-3.625 -3.107,-0.894 -5.084,-3.754 -2.554,-6.461 2.554,-2.743 7.639,-2.566 9.957,0.329 1.754,2.178 2.566,4.92 3.296,7.509 0.471,2.083 -1.907,3.472 -3.437,2.248 z"
         fill="#10132c"
         id="path98" />
    </g>
  </g>
  <g
     style="mix-blend-mode:multiply"
     opacity="0.5"
     id="g108"
     transform="translate(72.000035,-11.074773)">
    <g
       style="mix-blend-mode:multiply"
       opacity="0.5"
       id="g106">
      <path
         d="m 200.448,218.288 c -1.224,-1.247 -8.886,-2.601 -11.699,-8.262 -3.448,-4.861 -3.06,-11.84 -6.238,-14.524 -3.319,-3.342 -11.204,8.404 -1.93,19.161 9.451,10.346 21.703,5.132 19.867,3.614 z"
         fill="#10132c"
         id="path104" />
    </g>
  </g>
  <path
     d="m 254.50003,184.42723 c 3.177,2.684 2.777,9.663 6.238,14.524 1.235,2.495 3.425,4.143 5.578,5.332 -7.285,-0.33 -13.711,-3.872 -17.913,-9.275 -1.177,-7.403 3.684,-13.017 6.108,-10.581 z"
     fill="#ffffff"
     id="path110" />
  <path
     d="m 213.09303,116.61123 c 0,11.157 9.051,20.208 20.209,20.208 6.967,0 13.111,-3.519 16.748,-8.886 -2.213,-9.121 -8.792,-27.352 -24.975,-19.314 -4.461,2.213 -8.11,3.555 -11.511,3.719 -0.306,1.377 -0.459,2.813 -0.459,4.285 z"
     fill="#c591e7"
     id="path112" />
  <path
     d="m 216.21203,115.76323 c 0,10.216 8.286,18.502 18.502,18.502 6.379,0 12.005,-3.225 15.336,-8.133 -2.025,-8.356 -8.051,-25.045 -22.869,-17.689 -4.084,2.024 -7.426,3.26 -10.545,3.401 -0.283,1.259 -0.424,2.578 -0.424,3.919 z"
     fill="#ffffff"
     id="path114" />
  <path
     d="m 235.07803,129.67523 c -6.597,0 -11.946,-5.749 -11.946,-12.841 0,-7.091 5.349,-12.84 11.946,-12.84 6.598,0 11.946,5.749 11.946,12.84 0,7.092 -5.348,12.841 -11.946,12.841 z"
     fill="#909af2"
     id="path116" />
  <path
     d="m 235.07803,126.08523 c -4.758,0 -8.615,-4.141 -8.615,-9.251 0,-5.109 3.857,-9.251 8.615,-9.251 4.758,0 8.615,4.142 8.615,9.251 0,5.11 -3.857,9.251 -8.615,9.251 z"
     fill="#10132c"
     id="path118" />
  <path
     d="m 227.74603,119.44723 c -1.444,0 -2.613,-1.17 -2.613,-2.613 0,-1.443 1.169,-2.612 2.613,-2.612 1.443,0 2.612,1.169 2.612,2.612 0,1.443 -1.169,2.613 -2.612,2.613 z"
     fill="#ffffff"
     id="path120" />
  <path
     d="m 187.66003,99.286227 c -4.343,-13.041 -3.472,-27.7648 8.592,-43.7597 6.108,-7.7209 14.006,-13.8175 23.009,-17.7839 0.648,-0.2707 1.354,-0.3413 2.036,-0.2118 0.683,0.1294 1.319,0.459 1.813,0.9533 0.494,0.4943 0.836,1.1181 0.977,1.8007 0.141,0.6827 0.082,1.3889 -0.188,2.0362 -7.074,16.3833 -9.699,27.2231 -1.224,43.9125 l -35.015,13.0647 z"
     fill="#e3cdf7"
     id="path122" />
  <g
     style="mix-blend-mode:multiply"
     opacity="0.1"
     id="g126"
     transform="translate(72.000035,-11.074773)">
    <path
       d="m 143.213,56.5384 c 1.588,-1.0711 3.601,0.5296 2.907,2.3186 -3.873,9.8865 -5.544,18.0075 -3.237,27.4232 0.436,1.7654 -0.942,3.4485 -2.754,3.4014 -3.166,-0.0941 -7.792,-0.0471 -11.887,0.7533 -3.661,0.7061 -6.709,-2.813 -5.579,-6.3674 2.483,-7.7326 8.086,-19.1256 20.55,-27.5174 z"
       fill="#3f4aaf"
       id="path124" />
  </g>
  <path
     d="m 257.70103,74.864127 0.153,2.6717 c 0,0.0824 0.071,0.1883 0.2,0.2354 0.129,0.047 0.247,0 0.294,-0.0471 l 2.213,-2.4481 c 0.894,-0.9887 2.189,-1.5889 3.59,-1.6948 l 2.436,-0.1766 c 0.118,0 0.177,-0.0706 0.2,-0.1294 0.024,-0.0589 0,-0.1413 -0.071,-0.2237 h -0.011 l -1.778,-1.6595 c -1.035,-0.9651 -1.659,-2.248 -1.73,-3.5779 l -0.035,-0.6121 -0.153,-2.6481 c -0.024,-0.0824 -0.094,-0.1766 -0.212,-0.2237 -0.118,-0.047 -0.235,-0.0117 -0.306,0.0354 l -2.189,2.4245 c -0.836,0.9298 -2.024,1.5183 -3.331,1.6713 l -0.27,0.0235 -2.178,0.153 -0.271,0.0236 c -0.117,0 -0.176,0.0706 -0.2,0.1177 -0.023,0.047 0,0.1412 0.083,0.2236 l 1.789,1.6713 c 1.035,0.9651 1.659,2.248 1.73,3.5779 l 0.035,0.6121 z"
     fill="#ffffff"
     id="path128" />
  <path
     d="m 324.36403,58.374927 1.824,0.8239 c 0,0 0.141,0.0117 0.224,-0.0589 0.082,-0.0706 0.094,-0.153 0.07,-0.2118 l -0.87,-2.3187 c -0.354,-0.9415 -0.307,-2.0008 0.105,-2.9777 l 0.718,-1.683 c 0.036,-0.0824 0.012,-0.1413 -0.023,-0.1766 -0.035,-0.0353 -0.094,-0.0588 -0.177,-0.0235 h -0.011 l -1.707,0.612 c -1,0.3531 -2.06,0.3296 -2.978,-0.0824 l -0.423,-0.1883 -1.813,-0.8121 c -0.059,-0.0118 -0.153,0 -0.224,0.0706 -0.07,0.0706 -0.094,0.153 -0.082,0.2119 l 0.859,2.2951 c 0.33,0.8827 0.306,1.8596 -0.035,2.7894 l -0.083,0.1883 -0.647,1.4947 -0.082,0.1883 c -0.036,0.0824 -0.012,0.1413 0.012,0.1766 0.023,0.0353 0.094,0.0588 0.176,0.0235 l 1.718,-0.6238 c 1.001,-0.3531 2.06,-0.3295 2.966,0.0824 l 0.424,0.1883 z"
     fill="#ffffff"
     id="path130" />
  <path
     d="m 223.49903,33.811627 -0.07,1.2946 c 0,0 0.023,0.0942 0.082,0.1177 0.059,0.0236 0.118,0.0118 0.141,0 l 1.189,-1.0592 c 0.482,-0.4237 1.13,-0.6474 1.812,-0.6238 l 1.177,0.0471 c 0,0 0.095,-0.0236 0.106,-0.0471 0.012,-0.0236 0.012,-0.0706 -0.023,-0.1177 l -0.765,-0.8945 c -0.436,-0.5179 -0.671,-1.1652 -0.636,-1.8125 v -0.2943 h 0.012 l 0.071,-1.2829 c 0,0 -0.036,-0.0941 -0.095,-0.1177 -0.058,-0.0235 -0.117,-0.0235 -0.153,0 l -1.177,1.0475 c -0.447,0.4002 -1.047,0.6121 -1.683,0.6238 h -0.129 l -1.048,-0.047 h -0.129 c 0,0 -0.094,0.0235 -0.106,0.047 -0.012,0.0236 -0.012,0.0707 0.024,0.106 l 0.765,0.8945 c 0.435,0.5178 0.67,1.1651 0.635,1.8007 v 0.2942 z"
     fill="#ffffff"
     id="path132" />
  <path
     d="m 339.64203,91.624227 1,0.812 c 0,0 0.083,0.035 0.153,0 0.071,-0.035 0.083,-0.082 0.083,-0.118 l -0.165,-1.589 c -0.059,-0.635 0.141,-1.294 0.553,-1.8358 l 0.73,-0.9298 c 0,0 0.035,-0.0823 0.012,-0.1176 -0.024,-0.0354 -0.048,-0.0471 -0.106,-0.0471 l -1.166,0.1059 c -0.682,0.0588 -1.341,-0.1295 -1.836,-0.5414 l -0.235,-0.1883 -1,-0.8004 c 0,0 -0.095,-0.0235 -0.153,0 -0.059,0.0236 -0.083,0.0824 -0.083,0.1177 l 0.165,1.5654 c 0.059,0.6003 -0.118,1.2124 -0.483,1.7304 l -0.082,0.106 -0.647,0.824 -0.083,0.105 c 0,0 -0.035,0.083 -0.023,0.106 0.011,0.024 0.047,0.047 0.106,0.047 l 1.177,-0.105 c 0.682,-0.059 1.341,0.129 1.836,0.541 l 0.235,0.188 z"
     fill="#ffffff"
     id="path134" />
  <path
     d="m 66.609645,289.11823 0.76502,1.86 c 0,0 0.09414,0.117 0.20006,0.117 0.10593,0 0.17656,-0.058 0.2001,-0.106 l 0.9651,-2.271 c 0.3884,-0.918 1.15344,-1.66 2.13032,-2.083 l 1.683047,-0.718 c 0.08239,-0.036 0.105923,-0.094 0.105923,-0.141 0,-0.048 -0.02354,-0.106 -0.105923,-0.142 h -0.01176 l -1.659524,-0.741 c -0.96511,-0.436 -1.71836,-1.177 -2.09499,-2.107 l -0.17655,-0.424 -0.75326,-1.836 c 0,0 -0.10594,-0.106 -0.21186,-0.106 -0.10593,0 -0.17654,0.047 -0.21185,0.095 l -0.95333,2.248 c -0.36486,0.859 -1.05926,1.565 -1.94198,2 l -0.18832,0.083 -1.49473,0.635 -0.18832,0.083 c -0.08239,0.035 -0.10594,0.094 -0.1177,0.141 -0.01177,0.047 0.02353,0.106 0.10592,0.141 l 1.6713,0.742 c 0.96511,0.435 1.71836,1.177 2.09499,2.106 l 0.17654,0.424 z"
     fill="#ffffff"
     id="path136" />
  <path
     d="m 291.90403,89.399227 c -0.845,0 -1.531,-0.6846 -1.531,-1.5296 0,-0.8451 0.686,-1.5301 1.531,-1.5301 0.845,0 1.53,0.685 1.53,1.5301 0,0.845 -0.685,1.5296 -1.53,1.5296 z"
     fill="#ffffff"
     id="path138" />
  <path
     d="m 240.52903,78.406727 c -0.845,0 -1.531,-0.685 -1.531,-1.5301 0,-0.845 0.686,-1.53 1.531,-1.53 0.845,0 1.53,0.685 1.53,1.53 0,0.8451 -0.685,1.5301 -1.53,1.5301 z"
     fill="#ffffff"
     id="path140" />
  <path
     d="m 256.88903,25.890727 c -0.845,0 -1.53,-0.685 -1.53,-1.5301 0,-0.845 0.685,-1.53 1.53,-1.53 0.845,0 1.53,0.685 1.53,1.53 0,0.8451 -0.685,1.5301 -1.53,1.5301 z"
     fill="#ffffff"
     id="path142" />
  <path
     d="m 179.39703,151.88423 1.824,0.824 c 0,0 0.142,0.012 0.224,-0.059 0.082,-0.07 0.094,-0.153 0.071,-0.212 l -0.871,-2.318 c -0.353,-0.942 -0.306,-2.001 0.106,-2.978 l 0.718,-1.683 c 0.035,-0.082 0.011,-0.141 -0.024,-0.177 -0.035,-0.035 -0.094,-0.058 -0.177,-0.023 h -0.011 l -1.707,0.612 c -1,0.353 -2.06,0.329 -2.978,-0.082 l -0.423,-0.189 -1.813,-0.812 c -0.059,-0.012 -0.153,0 -0.223,0.071 -0.071,0.07 -0.095,0.153 -0.083,0.212 l 0.859,2.295 c 0.33,0.882 0.306,1.859 -0.035,2.789 l -0.082,0.188 -0.648,1.495 -0.082,0.188 c -0.035,0.083 -0.012,0.142 0.012,0.177 0.023,0.035 0.094,0.059 0.176,0.024 l 1.719,-0.624 c 1,-0.353 2.059,-0.33 2.966,0.082 l 0.423,0.188 z"
     fill="#ffffff"
     id="path144" />
  <path
     d="m 129.37703,145.50523 0.5767,1.919 c 0,0 0.0824,0.117 0.1883,0.129 0.1059,0.012 0.1766,-0.035 0.2119,-0.082 l 1.1769,-2.178 c 0.4826,-0.882 1.3065,-1.541 2.3069,-1.871 l 1.7419,-0.553 c 0.0824,-0.024 0.1177,-0.083 0.1177,-0.13 0,-0.047 -0.0236,-0.106 -0.0942,-0.153 h -0.0118 l -1.5771,-0.894 c -0.918,-0.518 -1.6007,-1.342 -1.8949,-2.295 l -0.1295,-0.436 -0.5767,-1.906 c 0,0 -0.0941,-0.106 -0.2001,-0.118 -0.1059,-0.012 -0.1765,0.023 -0.2118,0.082 l -1.1652,2.154 c -0.4472,0.824 -1.2005,1.46 -2.1185,1.801 l -0.1883,0.07 -1.5536,0.495 -0.2001,0.059 c -0.0824,0.023 -0.1177,0.082 -0.1295,0.129 -0.0118,0.047 0.0236,0.106 0.0942,0.153 l 1.6006,0.895 c 0.9181,0.517 1.6007,1.341 1.895,2.295 l 0.1294,0.435 z"
     fill="#ffffff"
     id="path146" />
  <path
     d="m 136.28583,222.93723 0.1177,2.001 c 0,0.059 0.0471,0.142 0.153,0.177 0.1059,0.035 0.1765,0 0.2236,-0.035 l 1.6478,-1.836 c 0.6708,-0.742 1.6359,-1.189 2.6834,-1.272 l 1.8243,-0.129 c 0.0824,0 0.1295,-0.059 0.153,-0.094 0.0236,-0.036 0,-0.106 -0.0588,-0.165 l -1.33,-1.248 c -0.765,-0.718 -1.2358,-1.683 -1.2947,-2.671 l -0.0235,-0.459 -0.1059,-1.989 c -0.0118,-0.059 -0.0706,-0.13 -0.1648,-0.165 -0.0942,-0.035 -0.1765,-0.012 -0.2236,0.023 l -1.636,1.813 c -0.6238,0.694 -1.5183,1.13 -2.4834,1.247 l -0.2001,0.024 -1.6242,0.118 h -0.2118 c -0.0942,0.023 -0.1413,0.07 -0.153,0.106 -0.0118,0.035 0,0.106 0.0588,0.164 l 1.3418,1.248 c 0.765,0.718 1.2358,1.683 1.2946,2.672 l 0.0236,0.459 z"
     fill="#ffffff"
     id="path148" />
  <path
     d="m 159.70783,88.269727 1.3535,1.4825 c 0,0 0.1294,0.071 0.2236,0.036 0.0941,-0.036 0.1412,-0.106 0.153,-0.165 l 0.1295,-2.4716 c 0.0588,-1.0004 0.5178,-1.9538 1.2829,-2.6835 l 1.3299,-1.2476 c 0.0589,-0.0588 0.0706,-0.1294 0.0589,-0.1647 -0.0118,-0.0353 -0.0589,-0.0942 -0.153,-0.0942 h -0.0118 l -1.8125,-0.1177 c -1.0593,-0.0706 -2.0244,-0.5179 -2.6953,-1.2593 l -0.306,-0.3414 -1.3417,-1.4712 c 0,0 -0.1413,-0.0588 -0.2236,-0.0235 -0.0824,0.0353 -0.1413,0.1059 -0.1648,0.1648 l -0.1295,2.4481 c -0.0471,0.9298 -0.459,1.836 -1.1416,2.5422 l -0.1413,0.1412 -1.1887,1.1181 -0.153,0.1413 c -0.0706,0.0588 -0.0706,0.1294 -0.0589,0.1647 0.0118,0.0354 0.0589,0.0824 0.153,0.0942 l 1.8243,0.1177 c 1.0475,0.0706 2.0244,0.5179 2.6953,1.2594 l 0.306,0.3413 z"
     fill="#ffffff"
     id="path150" />
  <path
     d="m 172.76003,276.83123 0.577,1.918 c 0,0 0.082,0.118 0.188,0.13 0.106,0.011 0.176,-0.036 0.212,-0.083 l 1.177,-2.177 c 0.482,-0.883 1.306,-1.542 2.306,-1.871 l 1.742,-0.554 c 0.083,-0.023 0.118,-0.082 0.118,-0.129 0,-0.047 -0.023,-0.106 -0.094,-0.153 h -0.012 l -1.577,-0.895 c -0.918,-0.517 -1.601,-1.341 -1.895,-2.295 l -0.129,-0.435 -0.577,-1.907 c 0,0 -0.094,-0.106 -0.2,-0.118 -0.106,-0.011 -0.177,0.024 -0.212,0.083 l -1.165,2.154 c -0.447,0.824 -1.201,1.459 -2.1187,1.8 l -0.1883,0.071 -1.5536,0.494 -0.2001,0.059 c -0.0824,0.024 -0.1177,0.083 -0.1295,0.13 -0.0117,0.047 0.0236,0.106 0.0942,0.153 l 1.6007,0.894 c 0.918,0.518 1.6003,1.342 1.8953,2.295 l 0.129,0.436 z"
     fill="#ffffff"
     id="path152" />
  <path
     d="m 138.32153,185.38123 c -0.845,0 -1.53,-0.685 -1.53,-1.53 0,-0.845 0.685,-1.53 1.53,-1.53 0.845,0 1.5301,0.685 1.5301,1.53 0,0.845 -0.6851,1.53 -1.5301,1.53 z"
     fill="#ffffff"
     id="path154" />
  <path
     d="m 159.27173,105.17123 c -0.845,0 -1.53,-0.685 -1.53,-1.53 0,-0.845 0.685,-1.53 1.53,-1.53 0.845,0 1.5301,0.685 1.5301,1.53 0,0.845 -0.6851,1.53 -1.5301,1.53 z"
     fill="#ffffff"
     id="path156" />
  <path
     d="m 129.13013,242.75823 c -0.845,0 -1.53,-0.685 -1.53,-1.53 0,-0.846 0.685,-1.531 1.53,-1.531 0.845,0 1.5301,0.685 1.5301,1.531 0,0.845 -0.6851,1.53 -1.5301,1.53 z"
     fill="#ffffff"
     id="path158" />
  <path
     d="m 109.30983,206.10723 c -0.845,0 -1.53,-0.685 -1.53,-1.53 0,-0.845 0.685,-1.53 1.53,-1.53 0.845,0 1.53,0.685 1.53,1.53 0,0.845 -0.685,1.53 -1.53,1.53 z"
     fill="#ffffff"
     id="path160" />
  <path
     d="m 168.87523,226.65723 c -0.845,0 -1.53,-0.685 -1.53,-1.53 0,-0.845 0.685,-1.53 1.53,-1.53 0.845,0 1.5301,0.685 1.5301,1.53 0,0.845 -0.6851,1.53 -1.5301,1.53 z"
     fill="#ffffff"
     id="path162" />
  <path
     d="m 165.78053,72.580827 c -0.845,0 -1.53,-0.6851 -1.53,-1.5301 0,-0.845 0.685,-1.53 1.53,-1.53 0.845,0 1.53,0.685 1.53,1.53 0,0.845 -0.685,1.5301 -1.53,1.5301 z"
     fill="#ffffff"
     id="path164" />
  <path
     d="m 278.72203,5.4350267 1,0.8121 c 0,0 0.083,0.0354 0.153,0 0.071,-0.0353 0.083,-0.0823 0.083,-0.1177 l -0.165,-1.5889 c -0.059,-0.6355 0.141,-1.2946 0.553,-1.836 l 0.73,-0.9298 c 0,0 0.035,-0.0824 0.012,-0.1177 -0.024,-0.0353 -0.047,-0.0471 -0.106,-0.0471 l -1.166,0.1059 c -0.682,0.0589 -1.341,-0.1294 -1.836,-0.5414 l -0.235,-0.18829996 -1,-0.8003 c 0,0 -0.095,-0.0236 -0.153,0 -0.059,0.0235 -0.083,0.0824 -0.083,0.1177 l 0.165,1.56529996 c 0.059,0.6003 -0.118,1.2123 -0.483,1.7302 l -0.082,0.1059 -0.647,0.8239 -0.083,0.1059 c 0,0 -0.035,0.0824 -0.023,0.1059 0.012,0.0236 0.047,0.0471 0.106,0.0471 l 1.177,-0.1059 c 0.682,-0.0589 1.341,0.1294 1.836,0.5414 l 0.235,0.1883 z"
     fill="#ffffff"
     id="path166" />
  <path
     d="m 251.41203,128.46423 c 0,-7.268 -2.353,-15.754 -9.414,-20.214 -11.182,-7.061 -24.717,2.354 -30.603,5.885"
     stroke="#10132c"
     stroke-width="4.11937"
     stroke-linecap="round"
     id="path168" />
  <path
     d="m 244.35003,108.02523 2.354,-2.512"
     stroke="#10132c"
     stroke-width="4.11937"
     stroke-linecap="round"
     id="path170" />
  <path
     d="m 250.82403,119.04823 3.53,-0.588"
     stroke="#10132c"
     stroke-width="4.11937"
     stroke-linecap="round"
     id="path172" />
  <path
     d="m 230.22703,105.51323 -0.588,-4.708"
     stroke="#10132c"
     stroke-width="4.11937"
     stroke-linecap="round"
     id="path174" />
  <path
     d="m 216.69103,109.63323 -1.765,-2.943"
     stroke="#10132c"
     stroke-width="4.11937"
     stroke-linecap="round"
     id="path176" />
  <path
     d="m 279.07103,132.37723 c 1.765,-6.473 4.708,-16.183 11.769,-15.3 4.708,0.588 8.239,7.268 8.239,13.152"
     stroke="#10132c"
     stroke-width="3.53089"
     stroke-linecap="round"
     id="path178" />
  <path
     d="m 298.49103,124.93323 2.943,-1.177"
     stroke="#10132c"
     stroke-width="3.53089"
     stroke-linecap="round"
     id="path180" />
  <path
     d="m 293.19503,117.87123 2.354,-3.531"
     stroke="#10132c"
     stroke-width="3.53089"
     stroke-linecap="round"
     id="path182" />
  <path
     d="m 282.36703,116.57723 c -0.585,-0.78 -0.427,-1.887 0.353,-2.472 0.78,-0.585 1.887,-0.427 2.472,0.353 z m 1.765,2.354 -1.765,-2.354 2.825,-2.119 1.765,2.354 z"
     fill="#10132c"
     id="path184" />
  <path
     d="m 280.24803,126.49323 -2.942,-0.971"
     stroke="#10132c"
     stroke-width="3.53089"
     stroke-linecap="round"
     id="path186" />
</svg>
